<?xml version="1.0" encoding="UTF-8" standalone="no"?>
<!DOCTYPE svg PUBLIC "-//W3C//DTD SVG 1.1//EN" "http://www.w3.org/Graphics/SVG/1.1/DTD/svg11.dtd">
<svg width="100%" height="100%" viewBox="0 0 482 430" version="1.1" xmlns="http://www.w3.org/2000/svg" xmlns:xlink="http://www.w3.org/1999/xlink" xml:space="preserve" xmlns:serif="http://www.serif.com/" style="fill-rule:evenodd;clip-rule:evenodd;stroke-linejoin:round;stroke-miterlimit:2;">
    <g transform="matrix(0.1,0,0,-0.1,0,430)">
        <path d="M670,3753C613,3729 572,3692 530,3628C469,3534 455,3477 455,3320C455,3184 470,3100 517,2975C549,2891 645,2686 675,2640C687,2621 719,2567 746,2522C802,2426 867,2348 855,2390C851,2404 828,2462 803,2520C719,2717 620,2969 620,2985C620,2994 615,3010 609,3021C589,3060 568,3176 564,3275C560,3369 562,3378 588,3430C612,3477 625,3489 679,3519C785,3575 897,3564 1009,3486C1037,3466 1062,3450 1065,3450C1070,3450 1149,3379 1194,3334C1226,3301 1303,3215 1342,3167C1355,3151 1376,3125 1390,3109C1404,3093 1426,3066 1440,3049C1454,3032 1478,3005 1493,2988C1520,2959 1521,2958 1540,2975C1551,2985 1565,3011 1571,3032C1586,3090 1552,3153 1448,3260C1432,3275 1420,3291 1420,3295C1420,3308 1222,3511 1151,3570C1128,3589 1101,3613 1092,3623C1083,3632 1070,3640 1064,3640C1057,3640 1050,3646 1047,3653C1042,3666 930,3726 865,3750C817,3768 710,3770 670,3753Z" style="fill:white;fill-rule:nonzero;"/>
        <path d="M3985,3762C3952,3756 3850,3708 3850,3699C3850,3694 3843,3690 3835,3690C3827,3690 3805,3677 3787,3660C3768,3644 3749,3630 3745,3630C3736,3630 3740,3634 3560,3456C3486,3382 3414,3309 3400,3294C3308,3189 3291,3169 3288,3159C3285,3151 3271,3152 3237,3164C3135,3199 3015,3225 2865,3246C2560,3289 2332,3294 2100,3265C2081,3262 2055,3260 2043,3260C2031,3260 2018,3255 2015,3250C2012,3244 1994,3240 1977,3240C1942,3240 1896,3225 1778,3179C1660,3132 1675,3117 1812,3145C1933,3171 1967,3173 2185,3173C2392,3173 2501,3167 2530,3156C2538,3153 2570,3148 2600,3145C2684,3137 2703,3134 2725,3127C2749,3120 2776,3114 2850,3100C2945,3082 3206,2999 3247,2972C3278,2953 3316,2964 3337,2998C3347,3013 3363,3035 3375,3047C3386,3059 3406,3083 3420,3100C3434,3116 3456,3143 3470,3159C3484,3175 3515,3212 3540,3241C3617,3332 3732,3441 3763,3453C3772,3456 3780,3464 3780,3470C3780,3475 3786,3480 3794,3480C3801,3480 3819,3489 3833,3500C3872,3531 3958,3556 4020,3554C4085,3552 4195,3501 4211,3466C4217,3454 4227,3434 4235,3421C4265,3368 4263,3223 4231,3095C4206,2994 4197,2963 4185,2935C4178,2919 4155,2860 4134,2805C4114,2750 4087,2683 4074,2655C4015,2523 3960,2390 3960,2379C3960,2358 3989,2390 4046,2476C4076,2522 4103,2568 4107,2577C4111,2587 4117,2597 4121,2600C4141,2614 4270,2886 4303,2986C4351,3128 4361,3180 4365,3315C4370,3470 4342,3566 4262,3666C4210,3732 4148,3763 4066,3765C4032,3765 3996,3764 3985,3762Z" style="fill:white;fill-rule:nonzero;"/>
        <path d="M832,3391C834,3386 867,3348 905,3307C988,3217 1036,3155 1057,3110C1060,3102 1074,3079 1086,3060C1115,3014 1162,2876 1166,2822C1169,2791 1163,2765 1145,2727C1132,2698 1104,2635 1084,2585C958,2272 961,2283 974,2180C977,2155 982,2111 985,2081C988,2051 995,2019 1000,2009C1006,1999 1010,1980 1010,1967C1010,1943 1037,1835 1065,1746C1090,1664 1206,1438 1245,1392C1282,1349 1282,1349 1245,1278C1199,1189 1188,1135 1187,995C1186,882 1195,839 1237,760C1267,704 1307,647 1332,624C1367,593 1451,553 1506,543C1607,524 1842,543 1875,572C1880,576 1901,580 1922,580C1959,580 2008,596 2225,675C2280,695 2332,713 2340,714C2348,715 2368,720 2383,724C2401,730 2427,728 2453,720C2553,689 2620,666 2690,640C2793,602 2827,592 2885,584C2913,581 2940,574 2946,569C2967,552 3107,534 3205,536C3347,538 3433,570 3508,649C3653,800 3681,1075 3573,1281C3537,1349 3537,1349 3566,1386C3582,1405 3602,1434 3610,1448C3618,1463 3628,1477 3631,1480C3641,1489 3700,1611 3730,1685C3767,1778 3790,1853 3790,1884C3790,1898 3794,1911 3799,1914C3808,1920 3826,2012 3823,2040C3822,2048 3825,2061 3830,2070C3839,2086 3853,2206 3853,2265C3853,2282 3841,2324 3826,2360C3811,2396 3779,2476 3754,2539C3730,2602 3706,2658 3702,2664C3697,2670 3685,2698 3675,2725C3665,2753 3653,2780 3649,2786C3644,2792 3644,2810 3649,2826C3654,2842 3668,2887 3679,2925C3691,2964 3710,3014 3722,3037C3770,3125 3814,3195 3827,3203C3834,3207 3840,3216 3840,3222C3840,3228 3849,3242 3860,3254C3872,3266 3903,3298 3930,3326C3958,3354 3980,3383 3980,3389C3980,3403 3890,3356 3854,3323C3840,3310 3826,3300 3823,3300C3810,3300 3660,3159 3660,3146C3660,3140 3651,3127 3640,3117C3607,3089 3549,2992 3508,2895C3468,2801 3467,2783 3496,2715C3503,2699 3520,2656 3533,2620C3547,2584 3574,2515 3593,2465C3612,2416 3638,2348 3650,2315C3662,2282 3678,2239 3686,2220C3702,2181 3706,2134 3696,2080C3677,1971 3669,1938 3645,1870C3620,1799 3562,1671 3550,1660C3547,1657 3523,1623 3497,1583C3471,1543 3445,1508 3440,1505C3436,1502 3424,1507 3415,1516C3391,1540 3335,1577 3311,1585C3299,1588 3290,1595 3290,1600C3290,1610 3163,1660 3138,1660C3110,1660 3108,1678 3134,1695C3147,1704 3166,1728 3176,1748C3198,1794 3201,1895 3182,1934C3166,1966 3176,1980 3216,1980C3245,1980 3300,2000 3300,2010C3300,2030 3194,2057 3125,2055C3053,2052 2962,2034 2946,2019C2932,2007 2890,2008 2890,2020C2890,2026 2898,2033 2908,2037C2917,2040 2948,2053 2977,2066C3029,2090 3120,2118 3175,2126C3192,2129 3226,2135 3251,2141C3285,2149 3315,2148 3359,2139C3402,2131 3424,2130 3431,2137C3448,2154 3415,2207 3369,2237C3289,2290 3153,2265 2935,2157C2741,2061 2639,2021 2604,2027C2536,2037 2534,2039 2521,2082C2508,2125 2508,2125 2489,2102C2479,2089 2468,2059 2464,2035C2458,1990 2461,1981 2504,1926C2526,1899 2613,1893 2665,1914C2722,1938 2731,1918 2679,1884C2644,1860 2633,1845 2620,1803C2602,1742 2595,1733 2577,1748C2548,1772 2468,1791 2400,1789C2361,1788 2327,1783 2324,1778C2321,1774 2314,1772 2309,1776C2304,1779 2284,1772 2265,1760C2228,1737 2210,1740 2210,1770C2210,1805 2179,1855 2139,1884C2093,1919 2101,1937 2153,1915C2192,1899 2277,1895 2298,1908C2323,1924 2360,1985 2360,2009C2360,2023 2350,2055 2339,2080C2318,2125 2318,2125 2297,2080C2277,2039 2271,2035 2230,2029C2177,2022 2122,2042 1880,2159C1757,2218 1702,2239 1640,2252C1615,2257 1583,2263 1569,2266C1506,2280 1403,2219 1387,2160C1380,2131 1393,2127 1456,2140C1487,2147 1528,2149 1549,2145C1569,2141 1596,2136 1610,2134C1624,2133 1646,2129 1660,2127C1694,2121 1839,2071 1870,2055C1884,2048 1903,2039 1913,2036C1939,2028 1934,2010 1905,2010C1891,2010 1880,2014 1880,2018C1880,2031 1751,2054 1674,2054C1605,2054 1520,2029 1520,2009C1520,2000 1579,1982 1620,1978C1640,1975 1644,1970 1642,1950C1640,1936 1634,1921 1630,1915C1619,1901 1624,1791 1638,1758C1644,1743 1663,1719 1679,1704C1696,1689 1707,1674 1705,1670C1702,1666 1682,1660 1659,1656C1611,1648 1530,1609 1479,1569C1459,1553 1437,1540 1431,1540C1425,1540 1420,1536 1420,1531C1420,1526 1411,1518 1399,1515C1378,1508 1340,1533 1340,1554C1340,1560 1328,1576 1315,1589C1301,1602 1290,1616 1290,1621C1290,1626 1270,1666 1246,1709C1222,1753 1196,1806 1190,1827C1183,1848 1174,1870 1170,1875C1166,1881 1159,1906 1156,1932C1152,1958 1144,1982 1139,1986C1133,1989 1131,1998 1133,2004C1136,2011 1132,2045 1125,2080C1108,2162 1108,2161 1220,2445C1237,2489 1255,2536 1260,2550C1265,2564 1281,2607 1296,2645C1357,2805 1356,2787 1317,2882C1277,2978 1226,3068 1178,3125C1126,3187 1008,3300 994,3300C990,3300 982,3307 976,3315C964,3331 851,3400 837,3400C832,3400 830,3396 832,3391ZM2096,1822C2112,1813 2146,1784 2169,1758C2203,1720 2209,1709 2197,1704C2181,1698 2150,1632 2150,1604C2150,1591 2157,1593 2183,1614C2235,1657 2284,1679 2349,1689C2451,1706 2575,1675 2624,1621C2644,1599 2670,1593 2670,1610C2670,1633 2637,1699 2623,1704C2611,1709 2617,1720 2651,1758C2718,1832 2790,1864 2790,1820C2790,1784 2821,1722 2847,1704C2873,1687 2873,1687 2850,1670C2828,1653 2828,1652 2846,1647C2856,1644 2883,1638 2905,1635C3012,1618 3178,1552 3221,1509C3231,1499 3257,1479 3280,1465C3302,1451 3332,1422 3346,1400C3361,1378 3377,1360 3381,1360C3386,1360 3390,1356 3390,1350C3390,1345 3404,1318 3420,1290C3462,1218 3496,1081 3486,1020C3468,909 3456,872 3417,805C3384,750 3301,707 3222,705C3089,703 2909,767 2839,843C2817,866 2793,892 2785,901C2777,910 2770,922 2770,929C2770,935 2763,943 2755,946C2747,950 2740,957 2740,962C2740,968 2713,998 2680,1030C2622,1086 2585,1105 2498,1124C2482,1128 2469,1137 2469,1145C2468,1153 2467,1163 2465,1168C2464,1172 2460,1193 2456,1215C2444,1284 2417,1370 2408,1370C2403,1370 2397,1364 2395,1358C2388,1340 2360,1213 2353,1167C2348,1137 2342,1129 2321,1124C2235,1105 2198,1086 2143,1032C2082,973 2010,887 2010,874C2010,858 1933,797 1886,775C1748,711 1617,690 1523,718C1494,727 1470,737 1470,742C1470,746 1463,750 1456,750C1435,750 1398,804 1366,881C1305,1026 1340,1230 1448,1371C1469,1398 1543,1472 1573,1497C1640,1551 1866,1640 1940,1640C1954,1640 1972,1645 1980,1650C1993,1658 1991,1661 1973,1666C1944,1674 1944,1686 1971,1702C1997,1718 2030,1781 2030,1815C2030,1845 2050,1847 2096,1822ZM2496,1063C2573,1028 2652,944 2711,836C2722,815 2740,788 2751,777C2791,734 2765,730 2650,761C2450,817 2410,822 2335,802C2183,761 2050,734 2050,744C2050,752 2082,803 2091,810C2094,813 2103,827 2111,841C2170,951 2234,1016 2329,1063C2409,1103 2409,1103 2496,1063Z" style="fill:white;fill-rule:nonzero;"/>
        <path d="M2301,1644C2251,1621 2222,1597 2184,1543C2134,1473 2141,1439 2215,1380C2250,1352 2260,1349 2298,1354C2321,1357 2351,1367 2365,1376C2393,1394 2420,1391 2490,1364C2547,1342 2577,1349 2624,1394C2671,1440 2677,1468 2651,1516C2598,1616 2534,1654 2415,1657C2360,1659 2324,1654 2301,1644Z" style="fill:white;fill-rule:nonzero;"/>
        <path d="M1997,1472C1947,1417 2015,1329 2073,1373C2096,1390 2102,1440 2085,1467C2066,1495 2020,1498 1997,1472Z" style="fill:white;fill-rule:nonzero;"/>
        <path d="M2732,1470C2718,1432 2730,1380 2756,1368C2807,1344 2852,1397 2833,1457C2825,1481 2817,1485 2782,1488C2747,1491 2739,1488 2732,1470Z" style="fill:white;fill-rule:nonzero;"/>
        <path d="M1875,1295C1861,1282 1850,1260 1850,1247C1850,1224 1893,1170 1911,1170C1932,1170 1952,1185 1965,1210C1989,1256 1956,1320 1910,1320C1904,1320 1888,1309 1875,1295Z" style="fill:white;fill-rule:nonzero;"/>
        <path d="M2879,1310C2870,1305 2857,1287 2851,1271C2841,1247 2841,1237 2854,1212C2863,1195 2879,1179 2889,1175C2913,1168 2957,1194 2965,1220C2974,1248 2960,1289 2937,1305C2912,1322 2901,1323 2879,1310Z" style="fill:white;fill-rule:nonzero;"/>
        <path d="M2065,1245C2051,1232 2040,1212 2040,1200C2040,1175 2082,1130 2105,1130C2128,1130 2170,1175 2170,1200C2170,1225 2128,1270 2105,1270C2096,1270 2078,1259 2065,1245Z" style="fill:white;fill-rule:nonzero;"/>
        <path d="M2671,1244C2644,1209 2645,1185 2675,1155C2704,1125 2720,1124 2751,1148C2796,1185 2767,1270 2710,1270C2700,1270 2682,1258 2671,1244Z" style="fill:white;fill-rule:nonzero;"/>
        <path d="M2144,2371C2148,2365 2177,2344 2208,2323C2239,2302 2298,2252 2338,2211C2411,2136 2411,2136 2489,2218C2532,2263 2570,2300 2574,2300C2579,2300 2677,2365 2690,2378C2693,2380 2675,2379 2650,2375C2583,2365 2482,2315 2444,2273C2410,2237 2410,2237 2375,2273C2355,2294 2313,2323 2282,2339C2221,2370 2132,2390 2144,2371Z" style="fill:white;fill-rule:nonzero;"/>
    </g>
</svg>
